<?xml version="1.0" encoding="UTF-8"?>
<!DOCTYPE svg PUBLIC "-//W3C//DTD SVG 1.1//EN" "http://www.w3.org/Graphics/SVG/1.1/DTD/svg11.dtd">
<!-- Creator: CorelDRAW Standard 2024 -->
<svg xmlns="http://www.w3.org/2000/svg" xml:space="preserve" width="90mm" height="90mm" version="1.1" style="shape-rendering:geometricPrecision; text-rendering:geometricPrecision; image-rendering:optimizeQuality; fill-rule:evenodd; clip-rule:evenodd"
viewBox="0 0 9000 9000"
 xmlns:xlink="http://www.w3.org/1999/xlink"
 xmlns:xodm="http://www.corel.com/coreldraw/odm/2003">
 <defs>
  <style type="text/css">
   <![CDATA[
    .str3 {stroke:#1B0706;stroke-width:200;stroke-miterlimit:22.9256}
    .str1 {stroke:#C9B08C;stroke-width:200;stroke-miterlimit:22.9256}
    .str0 {stroke:#1B0706;stroke-width:150;stroke-miterlimit:22.9256}
    .str2 {stroke:#1B0706;stroke-width:250;stroke-miterlimit:22.9256}
    .str5 {stroke:#1B0706;stroke-width:150;stroke-linecap:round;stroke-miterlimit:22.9256}
    .str6 {stroke:white;stroke-width:200;stroke-linecap:round;stroke-linejoin:round;stroke-miterlimit:22.9256}
    .str4 {stroke:#1B0706;stroke-width:250;stroke-linecap:round;stroke-linejoin:round;stroke-miterlimit:16.3804}
    .str7 {stroke:#1B0706;stroke-width:200;stroke-linecap:square;stroke-linejoin:round;stroke-miterlimit:22.9256}
    .str8 {stroke:#1B0706;stroke-width:150;stroke-linecap:square;stroke-linejoin:round;stroke-miterlimit:22.9256}
    .fil1 {fill:none}
    .fil6 {fill:#1B0706}
    .fil12 {fill:#1B0706}
    .fil2 {fill:#A42C1C}
    .fil10 {fill:#BDB6B6}
    .fil13 {fill:#BDB6B6}
    .fil0 {fill:#C07F2B}
    .fil8 {fill:#CBA578}
    .fil4 {fill:#CFA777}
    .fil7 {fill:#E1DBD7}
    .fil9 {fill:#F2EDED}
    .fil11 {fill:#F9AC1D}
    .fil5 {fill:white}
    .fil3 {fill:white}
   ]]>
  </style>
 </defs>
 <g id="Background">
  <metadata id="CorelCorpID_0Corel-Layer"/>
  <path id="Right_x0020_half_x0020_Ellipse" class="fil0" d="M4559.71 5031.23l0 2942.26c1851.24,0 3351.98,-1317.29 3351.98,-2942.26 0,-1624.96 -1500.74,-2942.25 -3351.98,-2942.25l0 2942.25z"/>
  <ellipse class="fil1 str0" cx="4508.46" cy="5011.25" rx="3571.99" ry="3181.02"/>
  <ellipse class="fil1 str1" cx="4507.58" cy="5001.25" rx="3399.42" ry="3019.23"/>
  <path id="Left_x0020_half_x0020_Ellipse" class="fil2" d="M4554.36 4997.29l0 2942.25c-1851.24,0 -3351.98,-1317.29 -3351.98,-2942.25 0,-1624.97 1500.74,-2942.26 3351.98,-2942.26l0 2942.26z"/>
 </g>
 <g id="Head">
  <metadata id="CorelCorpID_1Corel-Layer"/>
  <rect id="Left_x0020_ear_x0020_shine" class="fil3 str2" x="2459.05" y="1335.02" width="1262.57" height="1091.65" rx="269.27" ry="232.82"/>
  <path id="Left_x0020_ear" class="fil4" d="M2776.74 1525.02l662.21 0c106.98,0 194.5,87.51 194.5,194.49l0 428.68c0,106.95 -115.78,187.14 -222.64,182.77l-688 -28.13c-106.86,-4.37 -140.57,-47.66 -140.57,-154.64l0 -428.68c0,-106.98 87.52,-194.49 194.5,-194.49z"/>
  <rect id="Right_x0020_ear_x0020_shine" class="fil3 str2" x="5259.05" y="1335.02" width="1262.57" height="1091.65" rx="269.27" ry="232.82"/>
  <path id="Right_x0020_ear" class="fil4" d="M6209.92 1530.7l-662.21 0c-106.98,0 -194.5,87.51 -194.5,194.49l0 428.68c0,106.95 115.78,187.14 222.64,182.77l688 -28.13c106.86,-4.37 140.57,-47.66 140.57,-154.64l0 -428.68c0,-106.98 -87.52,-194.49 -194.5,-194.49z"/>
  <circle id="Antenna" class="fil5 str3" cx="4498.41" cy="543.68" r="348.71"/>
  <g id="Face">
   <rect id="Face_x0020_shine" class="fil3 str3" x="3018.88" y="780.46" width="2920.08" height="2920.08" rx="190" ry="190"/>
   <rect id="Face_0" class="fil4" x="3213.22" y="976.58" width="2623.3" height="2623.3" rx="116.79" ry="116.79"/>
  </g>
  <circle id="Left_x0020_eye" class="fil6" cx="3782.81" cy="1958.83" r="280.71"/>
  <circle id="Right_x0020_eye" class="fil6" cx="5162.81" cy="1958.83" r="280.71"/>
  <circle id="Left_x0020_eye_x0020_gleam" class="fil7" cx="3684.6" cy="1872.95" r="81.61"/>
  <circle id="Right_x0020_eye_x0020_gleam" class="fil7" cx="5062.36" cy="1865.34" r="81.61"/>
  <path id="Mouth" class="fil1 str4" d="M3603.04 2770.79c0,0 830.71,321.24 1789.56,0"/>
  <path id="Left_x0020_eybrow" class="fil1 str5" d="M3379.46 1621.86c0,0 243.97,-306.71 641.3,-209.12"/>
  <path id="Right_x0020_eybrow" class="fil1 str5" d="M5640.76 1621.86c0,0 -243.97,-306.71 -641.3,-209.12"/>
  <path class="fil4" d="M4569.95 335.83c102.37,0 171.97,112.94 177.37,194.37 2.7,40.84 -0.92,57.01 -17.8,107.1 -9.52,28.26 -15.07,42.84 -22.58,43.42 -4.47,0.35 -50.2,0.32 -56.11,0.18 -31.2,-0.79 -65.53,-0.38 -88.87,-2.91 -117.25,-12.71 -228.03,-79.02 -217.31,-174.41 10.72,-95.39 122.93,-167.75 225.3,-167.75z"/>
 </g>
 <g id="Body">
  <metadata id="CorelCorpID_2Corel-Layer"/>
  <g id="Right_x0020_shoulder">
   <path id="Right_x0020_elbow" class="fil8 str3" d="M6502.79 5625.81c372.3,78.97 537.68,-67.61 804.03,342.05 266.35,409.66 759.41,151.8 843.42,-120.33 84.01,-272.13 -781.7,-1267.64 -1622.78,-1149.28 -522.45,73.52 -628.09,394.42 -456.87,646.59 76.99,113.38 226.12,239.9 432.2,280.97z"/>
   <path id="Right_x0020_elbow_x0020_shine" class="fil1 str6" d="M6580.02 4889.33c0,0 867.79,-85.57 1386.51,892.02"/>
  </g>
  <g id="Left_x0020_shoulder">
   <path id="Right_x0020_elbow_1" class="fil8 str3" d="M2448.01 5625.81c-372.3,78.97 -537.68,-67.61 -804.03,342.05 -266.35,409.66 -759.41,151.8 -843.42,-120.33 -84.01,-272.13 781.7,-1267.64 1622.78,-1149.28 522.45,73.52 628.09,394.42 456.87,646.59 -76.99,113.38 -226.12,239.9 -432.2,280.97z"/>
   <path id="Right_x0020_elbow_x0020_shine_2" class="fil1 str6" d="M2370.78 4889.33c0,0 -867.79,-85.57 -1386.51,892.02"/>
  </g>
  <rect id="Body_x0020_shine" class="fil3 str3" x="2622.08" y="4173.66" width="3713.68" height="3713.68" rx="241.64" ry="241.64"/>
  <rect id="Body_x0020_shine_3" class="fil4" x="2834.97" y="4326.55" width="3404.11" height="3512.74" rx="221.49" ry="228.56"/>
  <rect id="Neck" class="fil6" x="3756.47" y="3775.73" width="1497.47" height="309.89"/>
 </g>
 <g id="Right_x0020_arm">
  <metadata id="CorelCorpID_3Corel-Layer"/>
  <ellipse id="Segment_x0020_2" class="fil8 str3" transform="matrix(1.08858 -0.628495 0.471795 0.817172 7852.26 6383.33)" rx="480.44" ry="503.32"/>
  <ellipse id="Wrist_x0020_shine" class="fil5 str3" cx="7172.01" cy="6812.13" rx="466.15" ry="529.06"/>
  <ellipse id="Wrist" class="fil8" cx="7075.87" cy="6868.35" rx="466.15" ry="397.6"/>
  <path id="Claw_x0020_shine" class="fil3 str3" d="M6027.63 6388.09c84.15,-81.62 184.12,-96.39 262.82,-99.8 166.2,-7.21 365.5,36.95 551.67,161.02 142.16,94.75 161.72,252 164.6,409.69 2.68,146.67 -17.63,288.41 -56.9,365.16 -36.87,72.05 -103.71,174.1 -161.35,216.74 -69.73,51.6 -183.24,95.26 -540.18,89.03 -168.27,-2.94 -247.05,-68.62 -296.88,-151.26 -118.37,-196.29 4.98,-507.97 45.22,-443.58 57.19,91.5 224.05,35.56 224.05,35.56 0,0 8.04,-66.19 -38.91,-77.93 -64.15,-16.04 -221.18,-1.07 -248.06,-94.9 -25.8,-90.04 -174.9,-140.91 93.92,-409.73z"/>
  <path id="Claw" class="fil4" d="M6134.09 6475.22c97.81,-40.27 409.16,-56.23 635.35,94.56 117.18,78.11 133.24,207.62 135.61,337.54 2.21,120.84 -14.52,237.62 -46.88,300.86 -30.38,59.36 -85.45,143.44 -132.94,178.57 -57.45,42.52 -150.97,78.49 -445.05,73.36 -138.64,-2.43 -203.55,-56.54 -244.6,-124.63 -97.53,-161.72 4.1,-418.52 37.25,-365.47 47.12,75.39 184.6,29.3 184.6,29.3 0,0 6.62,-54.53 -32.06,-64.21 -52.85,-13.21 -182.19,-0.84 -204.38,-78.18 -21.29,-74.23 -150.57,-227.35 113.1,-381.7z"/>
 </g>
 <g id="Beer">
  <metadata id="CorelCorpID_4Corel-Layer"/>
  <g id="Handle">
   <rect id="Handle_x0020_outside" class="fil9 str7" x="2762.25" y="5621.24" width="2054.06" height="2125.38" rx="340" ry="340"/>
   <path class="fil10" d="M2874.17 7519.99c-22.33,-0.93 151.33,-49.17 153.45,-46.49 2.12,2.68 -29.48,113.76 405.12,106.36 49.26,-0.83 91.31,-2.39 91.83,8.83 0.75,16.03 0.31,44.09 0.11,57.12 -0.15,10 -112.64,2.9 -224.48,0.83 -119.41,-2.22 -320.52,28.12 -374.37,-43.08l-30.52 -40.35 -21.14 -43.22z"/>
   <rect id="Handle_x0020_inside" class="fil10" x="2906.4" y="5780.17" width="1530.24" height="1583.37" rx="357.44" ry="357.44"/>
   <rect id="Handle_x0020_inside_4" class="fil4 str8" x="3044.84" y="5913.64" width="1488.88" height="1540.57" rx="270.21" ry="270.21"/>
  </g>
  <polygon id="Gray_x0020_Top" class="fil10 str3" points="3630.8,5322.21 5647.58,5322.21 5647.58,5918.84 3630.8,5918.84 "/>
  <path id="Body_5" class="fil11 str3" d="M3594.21 5750.77c640.29,88.53 1323.66,90.73 2053.37,0l0 2571.39 -2053.37 0c0,-921.55 0,-1649.84 0,-2571.39z"/>
  <g id="Base">
   <path id="Base_6" class="fil10 str3" d="M5735.87 8571.49c166.79,-80.76 -47.91,-485.24 -64.62,-501.95 -16.71,-16.71 -405.26,196.35 -1019.4,204.71 -614.14,8.36 -1031.86,-182.01 -1136.37,-179.65 -74.23,1.67 -129.43,224.05 -117.45,344.24 18.14,182.02 480.86,337.45 1245.64,337.21 336.99,0.28 925.41,-123.8 1092.2,-204.56z"/>
   <path id="Shine" class="fil5" d="M3535.37 8197.42c76.04,17.19 108.19,27.17 135.92,35.13 8.1,2.33 -66.53,282.54 -77.35,281.7 -13.34,-1.03 -89.98,-65.19 -94.62,-77.98 -13.28,-36.62 2.79,-110.57 4.44,-120.03 9.65,-55.21 -1.02,3.54 12.93,-61.91 1.09,-5.13 2.49,-9.03 4.16,-14.75 3.89,-13.48 12.03,-29.54 14.52,-42.16z"/>
  </g>
  <g id="Details">
   <path class="fil12" d="M3835.25 7913.3c-95.98,13.39 964.47,287.92 1586.11,-8.75 63.68,-30.39 -253.68,90.74 -706.74,85.9 -201.26,-2.14 -427.34,-16.5 -593.13,-34.86 -144.24,-15.98 -249.52,-42.53 -286.24,-42.29z"/>
   <path class="fil12" d="M3930.48 7940.65l-26.67 -284.11 -16.98 -716.91 -2.43 -1104.57 -46.07 -5.31 -7.28 469.97c0,0 -7.27,868.26 -7.27,886.85 0,18.59 -21.24,302.1 -14,312.65 7.24,10.56 25.33,417.18 25.33,417.18l95.37 24.25z"/>
   <polygon class="fil6" points="4206.39,7987.31 4199.24,6551.58 4204.01,5878.19 4075.27,5873.11 4122.17,7963.85 "/>
   <path class="fil6" d="M4683.2 7991.08c0,0 -28.53,-779.44 -16.61,-872.77 11.92,-93.33 14.23,-1225.93 14.23,-1225.93l-188.34 5.05c0,0 50.06,1982.66 -4.77,2065.9 -54.83,83.24 195.49,27.75 195.49,27.75z"/>
   <polygon class="fil6" points="5078.36,7982.97 5083.72,6506.84 4938.29,6497.3 4943.06,7984.92 "/>
   <path class="fil4" d="M5504.08 7882.4l-3.16 -1931.39c0,0 -145.33,-26 -104.87,218.35 40.46,244.36 18.64,1702.68 26.96,1702.67 10.92,58 66.62,50.78 81.07,10.37z"/>
  </g>
  <g id="Foam">
   <path id="Foam_7" class="fil13 str0" d="M3919.52 4693.39c-229.06,0 -414.75,180.46 -414.75,403.07 0,222.62 226.77,403.08 414.75,403.08 187.98,0 260.34,-72.64 334.03,-184.59 48.95,15.09 153.69,33.17 210.43,20.27 -38.08,187.74 106.69,284.73 361.49,257.81 -51.14,237.69 -96.49,928.21 254.51,925.62 242.73,-1.79 314.14,-379.53 296.87,-625.11 71.89,-1.4 63.34,4.94 108.69,0.18 297.34,-31.26 294.24,-409.07 236.62,-527.28 83.18,-186.57 -58.36,-502.14 -319.36,-514.44 -38.41,-290.72 -284.66,-514.98 -582.77,-514.98 -214.27,0 -401.74,115.86 -504.52,288.97 -9.64,-0.81 -19.4,-1.25 -29.25,-1.25 -89.59,0 -171.19,34.21 -232.46,90.26 -42.11,-13.99 -87.28,-21.61 -134.28,-21.61z"/>
   <path id="Foam_x0020_shine" class="fil5" d="M3582.41 5109.4c7.96,228.01 205.63,319.98 357.1,319.98 151.47,0 213.95,-154.33 273.33,-244.54 74.12,69.94 359.92,75.88 373.65,12.18 -40.53,123.38 -30.31,230.18 69.54,271.14 45.78,18.78 100.56,30.32 195.47,11.56 -22.18,489.95 -47.78,898.15 191.51,894.99 269.59,-3.55 160.38,-505.99 173.1,-705.45 76.73,52.12 140.41,64.91 176.9,61.08 239.59,-25.14 195.45,-250.49 149.02,-345.74 191.26,-153.98 87.39,-495.43 -214.18,-457.82 80.16,-256.48 -252.62,-536.75 -520.93,-524.38 -268.31,12.37 -425.24,159.59 -508.06,299.08 -79.7,-6.7 -181.86,32.33 -251.15,95.72 -192.83,-92.14 -474.78,40.71 -465.3,312.2z"/>
   <path class="fil10" d="M3748.8 5376.71c0,0 276.54,149.4 392.34,-71.48 30.43,-58.06 55.07,-79.97 87.25,-83.64 41.38,-4.71 98.83,99.5 135.54,157.78 43.44,68.96 46.98,114.64 1.74,195.41 -73.02,130.36 -517.22,33.51 -547.86,22.66 -58.7,-20.78 -91.23,43.84 -88.82,-145.38 0.46,-36.45 5.99,-56.58 19.81,-75.35z"/>
  </g>
 </g>
 <g id="Left_x0020_arm">
  <metadata id="CorelCorpID_5Corel-Layer"/>
  <ellipse id="Segment_x0020_2_8" class="fil8 str3" transform="matrix(-1.08858 -0.628495 -0.471795 0.817172 1193.78 6383.33)" rx="480.44" ry="503.32"/>
  <ellipse id="Wrist_x0020_shine_9" class="fil5 str3" cx="1874.03" cy="6812.13" rx="466.15" ry="529.06"/>
  <ellipse id="Wrist_10" class="fil8" cx="1970.17" cy="6868.35" rx="466.15" ry="397.6"/>
  <path id="Claw_x0020_shine_11" class="fil3 str3" d="M3018.41 6388.09c-84.15,-81.62 -184.12,-96.39 -262.82,-99.8 -166.2,-7.21 -365.5,36.95 -551.67,161.02 -142.16,94.75 -161.72,252 -164.6,409.69 -2.68,146.67 17.63,288.41 56.9,365.16 36.87,72.05 103.71,174.1 161.35,216.74 69.73,51.6 183.24,95.26 540.18,89.03 168.27,-2.94 247.05,-68.62 296.88,-151.26 118.37,-196.29 -4.98,-507.97 -45.22,-443.58 -57.19,91.5 -224.05,35.56 -224.05,35.56 0,0 -8.04,-66.19 38.91,-77.93 64.15,-16.04 221.18,-1.07 248.06,-94.9 25.8,-90.04 174.9,-140.91 -93.92,-409.73z"/>
  <path id="Claw_12" class="fil4" d="M2911.95 6475.22c-97.81,-40.27 -409.16,-56.23 -635.35,94.56 -117.18,78.11 -133.24,207.62 -135.61,337.54 -2.21,120.84 14.52,237.62 46.88,300.86 30.38,59.36 85.45,143.44 132.94,178.57 57.45,42.52 150.97,78.49 445.05,73.36 138.64,-2.43 203.55,-56.54 244.6,-124.63 97.53,-161.72 -4.1,-418.52 -37.25,-365.47 -47.12,75.39 -184.6,29.3 -184.6,29.3 0,0 -6.62,-54.53 32.06,-64.21 52.85,-13.21 182.19,-0.84 204.38,-78.18 21.29,-74.23 150.57,-227.35 -113.1,-381.7z"/>
 </g>
</svg>
